<svg width="375" height="148" viewBox="0 0 375 148" fill="none" xmlns="http://www.w3.org/2000/svg">
<g clip-path="url(#clip0_326_1765)">
<path d="M45.5379 58.0519L52.0479 54.2919C53.5779 53.4119 54.1079 51.4519 53.2179 49.9119C52.3379 48.3819 50.3779 47.8519 48.8379 48.7419L37.5879 55.2419L45.5379 58.0519Z" fill="#E74436"/>
<path d="M50.4478 67.7121C51.5578 67.7121 52.6278 67.1421 53.2278 66.1121C54.1078 64.5821 53.5878 62.6221 52.0578 61.7321L40.8078 55.2321C39.2778 54.3421 37.3178 54.8721 36.4278 56.4021C35.5478 57.9321 36.0678 59.8921 37.5978 60.7821L48.8478 67.2821C49.3478 67.5721 49.8978 67.7121 50.4478 67.7121Z" fill="#4C78BC"/>
<path d="M61.6378 67.7121C62.1778 67.7121 62.7278 67.5721 63.2378 67.2821L74.4878 60.7821L66.6478 57.9121L60.0378 61.7321C58.5078 62.6121 57.9778 64.5721 58.8678 66.1121C59.4578 67.1421 60.5278 67.7121 61.6378 67.7121Z" fill="#F6B819"/>
<path d="M72.8883 61.212C73.9983 61.212 75.0683 60.642 75.6683 59.612C76.5483 58.082 76.0283 56.122 74.4983 55.232L63.2483 48.732C61.7183 47.852 59.7583 48.372 58.8683 49.902C57.9883 51.432 58.5083 53.392 60.0383 54.282L71.2883 60.782C71.7883 61.082 72.3383 61.212 72.8883 61.212Z" fill="#0B9D58"/>
<path d="M92.8673 56.5996C92.5782 55.9916 92.1596 55.5231 91.6114 55.1942C91.0632 54.8553 90.4254 54.6859 89.6978 54.6859C88.9702 54.6859 88.3124 54.8553 87.7243 55.1942C87.1462 55.5231 86.6878 56.0015 86.3489 56.6295C86.02 57.2474 85.8555 57.965 85.8555 58.7823C85.8555 59.5996 86.02 60.3172 86.3489 60.9352C86.6878 61.5531 87.1462 62.0315 87.7243 62.3704C88.3124 62.6993 88.9702 62.8638 89.6978 62.8638C90.7144 62.8638 91.5516 62.5598 92.2094 61.9518C92.8673 61.3438 93.251 60.5215 93.3606 59.485H89.2044V58.3786H94.8108V59.4252C94.7311 60.2823 94.462 61.0697 94.0035 61.7873C93.545 62.495 92.942 63.0581 92.1945 63.4767C91.447 63.8854 90.6147 64.0897 89.6978 64.0897C88.731 64.0897 87.8489 63.8654 87.0516 63.4169C86.2542 62.9585 85.6213 62.3256 85.1529 61.5182C84.6944 60.7109 84.4651 59.7989 84.4651 58.7823C84.4651 57.7657 84.6944 56.8537 85.1529 56.0464C85.6213 55.2291 86.2542 54.5962 87.0516 54.1477C87.8489 53.6892 88.731 53.46 89.6978 53.46C90.8041 53.46 91.7809 53.7341 92.6281 54.2822C93.4852 54.8304 94.1081 55.6029 94.4969 56.5996H92.8673ZM99.8539 53.5796C100.99 53.5796 101.972 53.7939 102.799 54.2224C103.636 54.641 104.274 55.244 104.713 56.0314C105.161 56.8188 105.386 57.7457 105.386 58.8122C105.386 59.8787 105.161 60.8056 104.713 61.593C104.274 62.3704 103.636 62.9684 102.799 63.387C101.972 63.7957 100.99 64 99.8539 64H96.6096V53.5796H99.8539ZM99.8539 62.8787C101.199 62.8787 102.226 62.5249 102.934 61.8172C103.641 61.0996 103.995 60.0979 103.995 58.8122C103.995 57.5165 103.636 56.5049 102.919 55.7773C102.211 55.0497 101.189 54.6859 99.8539 54.6859H97.9701V62.8787H99.8539ZM115.074 56.5996C114.785 55.9916 114.366 55.5231 113.818 55.1942C113.27 54.8553 112.632 54.6859 111.904 54.6859C111.177 54.6859 110.519 54.8553 109.931 55.1942C109.353 55.5231 108.894 56.0015 108.555 56.6295C108.227 57.2474 108.062 57.965 108.062 58.7823C108.062 59.5996 108.227 60.3172 108.555 60.9352C108.894 61.5531 109.353 62.0315 109.931 62.3704C110.519 62.6993 111.177 62.8638 111.904 62.8638C112.921 62.8638 113.758 62.5598 114.416 61.9518C115.074 61.3438 115.458 60.5215 115.567 59.485H111.411V58.3786H117.017V59.4252C116.938 60.2823 116.669 61.0697 116.21 61.7873C115.752 62.495 115.149 63.0581 114.401 63.4767C113.654 63.8854 112.821 64.0897 111.904 64.0897C110.938 64.0897 110.056 63.8654 109.258 63.4169C108.461 62.9585 107.828 62.3256 107.359 61.5182C106.901 60.7109 106.672 59.7989 106.672 58.7823C106.672 57.7657 106.901 56.8537 107.359 56.0464C107.828 55.2291 108.461 54.5962 109.258 54.1477C110.056 53.6892 110.938 53.46 111.904 53.46C113.011 53.46 113.987 53.7341 114.835 54.2822C115.692 54.8304 116.315 55.6029 116.703 56.5996H115.074ZM133.372 53.6543V64H132.011V56.2856L128.573 64H127.616L124.163 56.2706V64H122.802V53.6543H124.267L128.094 62.206L131.922 53.6543H133.372ZM135.171 59.8737C135.171 59.0365 135.34 58.3039 135.679 57.676C136.018 57.0381 136.482 56.5447 137.07 56.1959C137.668 55.847 138.33 55.6726 139.058 55.6726C139.776 55.6726 140.399 55.8271 140.927 56.1361C141.455 56.4451 141.849 56.8338 142.108 57.3022V55.8072H143.483V64H142.108V62.4751C141.839 62.9535 141.435 63.3521 140.897 63.6711C140.369 63.9801 139.751 64.1346 139.043 64.1346C138.315 64.1346 137.658 63.9551 137.07 63.5963C136.482 63.2375 136.018 62.7342 135.679 62.0863C135.34 61.4385 135.171 60.7009 135.171 59.8737ZM142.108 59.8886C142.108 59.2707 141.983 58.7325 141.734 58.274C141.485 57.8155 141.146 57.4667 140.718 57.2275C140.299 56.9783 139.835 56.8537 139.327 56.8537C138.819 56.8537 138.355 56.9733 137.937 57.2125C137.518 57.4517 137.184 57.8006 136.935 58.259C136.686 58.7175 136.561 59.2557 136.561 59.8737C136.561 60.5016 136.686 61.0498 136.935 61.5182C137.184 61.9767 137.518 62.3305 137.937 62.5797C138.355 62.8189 138.819 62.9385 139.327 62.9385C139.835 62.9385 140.299 62.8189 140.718 62.5797C141.146 62.3305 141.485 61.9767 141.734 61.5182C141.983 61.0498 142.108 60.5066 142.108 59.8886ZM146.485 54.4766C146.226 54.4766 146.007 54.3869 145.827 54.2075C145.648 54.0281 145.558 53.8088 145.558 53.5497C145.558 53.2905 145.648 53.0713 145.827 52.8919C146.007 52.7124 146.226 52.6227 146.485 52.6227C146.734 52.6227 146.944 52.7124 147.113 52.8919C147.292 53.0713 147.382 53.2905 147.382 53.5497C147.382 53.8088 147.292 54.0281 147.113 54.2075C146.944 54.3869 146.734 54.4766 146.485 54.4766ZM147.143 55.8072V64H145.782V55.8072H147.143ZM148.953 59.8737C148.953 59.0365 149.123 58.3039 149.462 57.676C149.801 57.0381 150.264 56.5447 150.852 56.1959C151.45 55.847 152.118 55.6726 152.855 55.6726C153.493 55.6726 154.086 55.8221 154.634 56.1211C155.183 56.4102 155.601 56.7939 155.89 57.2723V52.9367H157.266V64H155.89V62.4601C155.621 62.9485 155.223 63.3521 154.694 63.6711C154.166 63.9801 153.548 64.1346 152.84 64.1346C152.113 64.1346 151.45 63.9551 150.852 63.5963C150.264 63.2375 149.801 62.7342 149.462 62.0863C149.123 61.4385 148.953 60.7009 148.953 59.8737ZM155.89 59.8886C155.89 59.2707 155.766 58.7325 155.517 58.274C155.267 57.8155 154.929 57.4667 154.5 57.2275C154.081 56.9783 153.618 56.8537 153.11 56.8537C152.601 56.8537 152.138 56.9733 151.719 57.2125C151.301 57.4517 150.967 57.8006 150.717 58.259C150.468 58.7175 150.344 59.2557 150.344 59.8737C150.344 60.5016 150.468 61.0498 150.717 61.5182C150.967 61.9767 151.301 62.3305 151.719 62.5797C152.138 62.8189 152.601 62.9385 153.11 62.9385C153.618 62.9385 154.081 62.8189 154.5 62.5797C154.929 62.3305 155.267 61.9767 155.517 61.5182C155.766 61.0498 155.89 60.5066 155.89 59.8886ZM166.831 55.8072V64H165.47V62.789C165.211 63.2076 164.847 63.5365 164.379 63.7757C163.92 64.005 163.412 64.1196 162.854 64.1196C162.216 64.1196 161.643 63.99 161.135 63.7309C160.626 63.4618 160.223 63.0631 159.924 62.5349C159.635 62.0066 159.49 61.3637 159.49 60.6063V55.8072H160.836V60.4269C160.836 61.2342 161.04 61.8571 161.449 62.2957C161.857 62.7242 162.415 62.9385 163.123 62.9385C163.851 62.9385 164.424 62.7143 164.842 62.2658C165.261 61.8172 165.47 61.1644 165.47 60.3073V55.8072H166.831ZM172.507 55.6726C173.214 55.6726 173.832 55.8271 174.36 56.1361C174.899 56.4451 175.297 56.8338 175.557 57.3022V55.8072H176.932V64.1794C176.932 64.9269 176.772 65.5897 176.454 66.1678C176.135 66.7559 175.676 67.2143 175.078 67.5432C174.49 67.8722 173.802 68.0366 173.015 68.0366C171.939 68.0366 171.042 67.7825 170.324 67.2741C169.606 66.7658 169.183 66.0731 169.053 65.196H170.399C170.548 65.6944 170.857 66.0931 171.326 66.3921C171.794 66.701 172.357 66.8555 173.015 66.8555C173.762 66.8555 174.37 66.6213 174.839 66.1529C175.317 65.6844 175.557 65.0266 175.557 64.1794V62.4601C175.287 62.9385 174.889 63.3372 174.36 63.6561C173.832 63.9751 173.214 64.1346 172.507 64.1346C171.779 64.1346 171.116 63.9551 170.518 63.5963C169.93 63.2375 169.467 62.7342 169.128 62.0863C168.789 61.4385 168.62 60.7009 168.62 59.8737C168.62 59.0365 168.789 58.3039 169.128 57.676C169.467 57.0381 169.93 56.5447 170.518 56.1959C171.116 55.847 171.779 55.6726 172.507 55.6726ZM175.557 59.8886C175.557 59.2707 175.432 58.7325 175.183 58.274C174.934 57.8155 174.595 57.4667 174.166 57.2275C173.748 56.9783 173.284 56.8537 172.776 56.8537C172.267 56.8537 171.804 56.9733 171.385 57.2125C170.967 57.4517 170.633 57.8006 170.384 58.259C170.135 58.7175 170.01 59.2557 170.01 59.8737C170.01 60.5016 170.135 61.0498 170.384 61.5182C170.633 61.9767 170.967 62.3305 171.385 62.5797C171.804 62.8189 172.267 62.9385 172.776 62.9385C173.284 62.9385 173.748 62.8189 174.166 62.5797C174.595 62.3305 174.934 61.9767 175.183 61.5182C175.432 61.0498 175.557 60.5066 175.557 59.8886ZM186.497 55.8072V64H185.136V62.789C184.877 63.2076 184.514 63.5365 184.045 63.7757C183.587 64.005 183.078 64.1196 182.52 64.1196C181.882 64.1196 181.309 63.99 180.801 63.7309C180.293 63.4618 179.889 63.0631 179.59 62.5349C179.301 62.0066 179.156 61.3637 179.156 60.6063V55.8072H180.502V60.4269C180.502 61.2342 180.706 61.8571 181.115 62.2957C181.523 62.7242 182.082 62.9385 182.789 62.9385C183.517 62.9385 184.09 62.7143 184.509 62.2658C184.927 61.8172 185.136 61.1644 185.136 60.3073V55.8072H186.497ZM190.155 57.1378C190.394 56.6693 190.733 56.3055 191.171 56.0464C191.62 55.7872 192.163 55.6577 192.801 55.6577V57.063H192.442C190.917 57.063 190.155 57.8903 190.155 59.5448V64H188.794V55.8072H190.155V57.1378ZM195.074 54.4766C194.815 54.4766 194.596 54.3869 194.416 54.2075C194.237 54.0281 194.147 53.8088 194.147 53.5497C194.147 53.2905 194.237 53.0713 194.416 52.8919C194.596 52.7124 194.815 52.6227 195.074 52.6227C195.323 52.6227 195.532 52.7124 195.702 52.8919C195.881 53.0713 195.971 53.2905 195.971 53.5497C195.971 53.8088 195.881 54.0281 195.702 54.2075C195.532 54.3869 195.323 54.4766 195.074 54.4766ZM195.732 55.8072V64H194.371V55.8072H195.732Z" fill="black"/>
<path d="M426.283 87.0839L371.125 104.483L363.652 97.4663L374.543 55.9527L307.785 53.6208L360.581 101.819L258.119 78.0068M258.119 78.0068L303.866 111.083L266.261 44.703L300.662 51.6227L317.735 -0.602635L377.731 41.6221L400.85 -16.5279L321.357 -5.5887L325.553 -79.8155L271.582 -39.8701L253.049 28.0074L258.119 78.0068ZM315.732 -5.77734L264.039 27.7114M384.086 137.955L307.077 119.374L366.319 104.353L384.086 137.955Z" stroke="#8D98AA"/>
<circle cx="303.247" cy="114.11" r="22.6041" transform="rotate(-111.168 303.247 114.11)" fill="#3D8AFF" stroke="#8D98AA"/>
<circle cx="374.139" cy="47.1948" r="26.6886" transform="rotate(-111.168 374.139 47.1948)" fill="#3D8AFF" stroke="#8D98AA"/>
<circle cx="305.004" cy="54.6093" r="8.63851" transform="rotate(-111.168 305.004 54.6093)" fill="#36BD57" stroke="#8D98AA"/>
<circle cx="258.643" cy="82.3833" r="8.63851" transform="rotate(-111.168 258.643 82.3833)" fill="#36BD57" stroke="#8D98AA"/>
<circle cx="385.163" cy="139.706" r="8.63851" transform="rotate(-111.168 385.163 139.706)" fill="#36BD57" stroke="#8D98AA"/>
<circle cx="319.646" cy="-4.24028" r="8.63851" transform="rotate(-111.168 319.646 -4.24028)" fill="#FF4F3E" stroke="#8D98AA"/>
<circle cx="365.173" cy="105.106" r="8.63851" transform="rotate(-111.168 365.173 105.106)" fill="#FF4F3E" stroke="#8D98AA"/>
<circle cx="257.574" cy="34.551" r="19.3035" transform="rotate(-111.168 257.574 34.551)" fill="#FFBB00" stroke="#8D98AA"/>
</g>
<defs>
<clipPath id="clip0_326_1765">
<rect width="380" height="148" fill="white"/>
</clipPath>
</defs>
</svg>
