<svg width="375" height="196" viewBox="0 0 375 196" fill="none" xmlns="http://www.w3.org/2000/svg">
<g clip-path="url(#clip0_326_1764)">
<path d="M50.5379 82.0519L57.0479 78.2919C58.5779 77.4119 59.1079 75.4519 58.2179 73.9119C57.3379 72.3819 55.3779 71.8519 53.8379 72.7419L42.5879 79.2419L50.5379 82.0519Z" fill="#E74436"/>
<path d="M55.4478 91.7121C56.5578 91.7121 57.6278 91.1421 58.2278 90.1121C59.1078 88.5821 58.5878 86.6221 57.0578 85.7321L45.8078 79.2321C44.2778 78.3421 42.3178 78.8721 41.4278 80.4021C40.5478 81.9321 41.0678 83.8921 42.5978 84.7821L53.8478 91.2821C54.3478 91.5721 54.8978 91.7121 55.4478 91.7121Z" fill="#4C78BC"/>
<path d="M66.6378 91.7121C67.1778 91.7121 67.7278 91.5721 68.2378 91.2821L79.4878 84.7821L71.6478 81.9121L65.0378 85.7321C63.5078 86.6121 62.9778 88.5721 63.8678 90.1121C64.4578 91.1421 65.5278 91.7121 66.6378 91.7121Z" fill="#F6B819"/>
<path d="M77.8883 85.212C78.9983 85.212 80.0683 84.642 80.6683 83.612C81.5483 82.082 81.0283 80.122 79.4983 79.232L68.2483 72.732C66.7183 71.852 64.7583 72.372 63.8683 73.902C62.9883 75.432 63.5083 77.392 65.0383 78.282L76.2883 84.782C76.7883 85.082 77.3383 85.212 77.8883 85.212Z" fill="#0B9D58"/>
<path d="M97.8673 80.5996C97.5782 79.9916 97.1596 79.5231 96.6114 79.1942C96.0632 78.8553 95.4254 78.6859 94.6978 78.6859C93.9702 78.6859 93.3124 78.8553 92.7243 79.1942C92.1462 79.5231 91.6878 80.0015 91.3489 80.6295C91.02 81.2474 90.8555 81.965 90.8555 82.7823C90.8555 83.5996 91.02 84.3172 91.3489 84.9352C91.6878 85.5531 92.1462 86.0315 92.7243 86.3704C93.3124 86.6993 93.9702 86.8638 94.6978 86.8638C95.7144 86.8638 96.5516 86.5598 97.2094 85.9518C97.8673 85.3438 98.251 84.5215 98.3606 83.485H94.2044V82.3786H99.8108V83.4252C99.7311 84.2823 99.462 85.0697 99.0035 85.7873C98.545 86.495 97.942 87.0581 97.1945 87.4767C96.447 87.8854 95.6147 88.0897 94.6978 88.0897C93.731 88.0897 92.8489 87.8654 92.0516 87.4169C91.2542 86.9585 90.6213 86.3256 90.1529 85.5182C89.6944 84.7109 89.4651 83.7989 89.4651 82.7823C89.4651 81.7657 89.6944 80.8537 90.1529 80.0464C90.6213 79.2291 91.2542 78.5962 92.0516 78.1477C92.8489 77.6892 93.731 77.46 94.6978 77.46C95.8041 77.46 96.7809 77.7341 97.6281 78.2822C98.4852 78.8304 99.1081 79.6029 99.4969 80.5996H97.8673ZM104.854 77.5796C105.99 77.5796 106.972 77.7939 107.799 78.2224C108.636 78.641 109.274 79.244 109.713 80.0314C110.161 80.8188 110.386 81.7457 110.386 82.8122C110.386 83.8787 110.161 84.8056 109.713 85.593C109.274 86.3704 108.636 86.9684 107.799 87.387C106.972 87.7957 105.99 88 104.854 88H101.61V77.5796H104.854ZM104.854 86.8787C106.199 86.8787 107.226 86.5249 107.934 85.8172C108.641 85.0996 108.995 84.0979 108.995 82.8122C108.995 81.5165 108.636 80.5049 107.919 79.7773C107.211 79.0497 106.189 78.6859 104.854 78.6859H102.97V86.8787H104.854ZM120.074 80.5996C119.785 79.9916 119.366 79.5231 118.818 79.1942C118.27 78.8553 117.632 78.6859 116.904 78.6859C116.177 78.6859 115.519 78.8553 114.931 79.1942C114.353 79.5231 113.894 80.0015 113.555 80.6295C113.227 81.2474 113.062 81.965 113.062 82.7823C113.062 83.5996 113.227 84.3172 113.555 84.9352C113.894 85.5531 114.353 86.0315 114.931 86.3704C115.519 86.6993 116.177 86.8638 116.904 86.8638C117.921 86.8638 118.758 86.5598 119.416 85.9518C120.074 85.3438 120.458 84.5215 120.567 83.485H116.411V82.3786H122.017V83.4252C121.938 84.2823 121.669 85.0697 121.21 85.7873C120.752 86.495 120.149 87.0581 119.401 87.4767C118.654 87.8854 117.821 88.0897 116.904 88.0897C115.938 88.0897 115.056 87.8654 114.258 87.4169C113.461 86.9585 112.828 86.3256 112.359 85.5182C111.901 84.7109 111.672 83.7989 111.672 82.7823C111.672 81.7657 111.901 80.8537 112.359 80.0464C112.828 79.2291 113.461 78.5962 114.258 78.1477C115.056 77.6892 115.938 77.46 116.904 77.46C118.011 77.46 118.987 77.7341 119.835 78.2822C120.692 78.8304 121.315 79.6029 121.703 80.5996H120.074ZM138.372 77.6543V88H137.011V80.2856L133.573 88H132.616L129.163 80.2706V88H127.802V77.6543H129.267L133.094 86.206L136.922 77.6543H138.372ZM140.171 83.8737C140.171 83.0365 140.34 82.3039 140.679 81.676C141.018 81.0381 141.482 80.5447 142.07 80.1959C142.668 79.847 143.33 79.6726 144.058 79.6726C144.776 79.6726 145.399 79.8271 145.927 80.1361C146.455 80.4451 146.849 80.8338 147.108 81.3022V79.8072H148.483V88H147.108V86.4751C146.839 86.9535 146.435 87.3521 145.897 87.6711C145.369 87.9801 144.751 88.1346 144.043 88.1346C143.315 88.1346 142.658 87.9551 142.07 87.5963C141.482 87.2375 141.018 86.7342 140.679 86.0863C140.34 85.4385 140.171 84.7009 140.171 83.8737ZM147.108 83.8886C147.108 83.2707 146.983 82.7325 146.734 82.274C146.485 81.8155 146.146 81.4667 145.718 81.2275C145.299 80.9783 144.835 80.8537 144.327 80.8537C143.819 80.8537 143.355 80.9733 142.937 81.2125C142.518 81.4517 142.184 81.8006 141.935 82.259C141.686 82.7175 141.561 83.2557 141.561 83.8737C141.561 84.5016 141.686 85.0498 141.935 85.5182C142.184 85.9767 142.518 86.3305 142.937 86.5797C143.355 86.8189 143.819 86.9385 144.327 86.9385C144.835 86.9385 145.299 86.8189 145.718 86.5797C146.146 86.3305 146.485 85.9767 146.734 85.5182C146.983 85.0498 147.108 84.5066 147.108 83.8886ZM151.485 78.4766C151.226 78.4766 151.007 78.3869 150.827 78.2075C150.648 78.0281 150.558 77.8088 150.558 77.5497C150.558 77.2905 150.648 77.0713 150.827 76.8919C151.007 76.7124 151.226 76.6227 151.485 76.6227C151.734 76.6227 151.944 76.7124 152.113 76.8919C152.292 77.0713 152.382 77.2905 152.382 77.5497C152.382 77.8088 152.292 78.0281 152.113 78.2075C151.944 78.3869 151.734 78.4766 151.485 78.4766ZM152.143 79.8072V88H150.782V79.8072H152.143ZM153.953 83.8737C153.953 83.0365 154.123 82.3039 154.462 81.676C154.801 81.0381 155.264 80.5447 155.852 80.1959C156.45 79.847 157.118 79.6726 157.855 79.6726C158.493 79.6726 159.086 79.8221 159.634 80.1211C160.183 80.4102 160.601 80.7939 160.89 81.2723V76.9367H162.266V88H160.89V86.4601C160.621 86.9485 160.223 87.3521 159.694 87.6711C159.166 87.9801 158.548 88.1346 157.84 88.1346C157.113 88.1346 156.45 87.9551 155.852 87.5963C155.264 87.2375 154.801 86.7342 154.462 86.0863C154.123 85.4385 153.953 84.7009 153.953 83.8737ZM160.89 83.8886C160.89 83.2707 160.766 82.7325 160.517 82.274C160.267 81.8155 159.929 81.4667 159.5 81.2275C159.081 80.9783 158.618 80.8537 158.11 80.8537C157.601 80.8537 157.138 80.9733 156.719 81.2125C156.301 81.4517 155.967 81.8006 155.717 82.259C155.468 82.7175 155.344 83.2557 155.344 83.8737C155.344 84.5016 155.468 85.0498 155.717 85.5182C155.967 85.9767 156.301 86.3305 156.719 86.5797C157.138 86.8189 157.601 86.9385 158.11 86.9385C158.618 86.9385 159.081 86.8189 159.5 86.5797C159.929 86.3305 160.267 85.9767 160.517 85.5182C160.766 85.0498 160.89 84.5066 160.89 83.8886ZM171.831 79.8072V88H170.47V86.789C170.211 87.2076 169.847 87.5365 169.379 87.7757C168.92 88.005 168.412 88.1196 167.854 88.1196C167.216 88.1196 166.643 87.99 166.135 87.7309C165.626 87.4618 165.223 87.0631 164.924 86.5349C164.635 86.0066 164.49 85.3637 164.49 84.6063V79.8072H165.836V84.4269C165.836 85.2342 166.04 85.8571 166.449 86.2957C166.857 86.7242 167.415 86.9385 168.123 86.9385C168.851 86.9385 169.424 86.7143 169.842 86.2658C170.261 85.8172 170.47 85.1644 170.47 84.3073V79.8072H171.831ZM177.507 79.6726C178.214 79.6726 178.832 79.8271 179.36 80.1361C179.899 80.4451 180.297 80.8338 180.557 81.3022V79.8072H181.932V88.1794C181.932 88.9269 181.772 89.5897 181.454 90.1678C181.135 90.7559 180.676 91.2143 180.078 91.5432C179.49 91.8722 178.802 92.0366 178.015 92.0366C176.939 92.0366 176.042 91.7825 175.324 91.2741C174.606 90.7658 174.183 90.0731 174.053 89.196H175.399C175.548 89.6944 175.857 90.0931 176.326 90.3921C176.794 90.701 177.357 90.8555 178.015 90.8555C178.762 90.8555 179.37 90.6213 179.839 90.1529C180.317 89.6844 180.557 89.0266 180.557 88.1794V86.4601C180.287 86.9385 179.889 87.3372 179.36 87.6561C178.832 87.9751 178.214 88.1346 177.507 88.1346C176.779 88.1346 176.116 87.9551 175.518 87.5963C174.93 87.2375 174.467 86.7342 174.128 86.0863C173.789 85.4385 173.62 84.7009 173.62 83.8737C173.62 83.0365 173.789 82.3039 174.128 81.676C174.467 81.0381 174.93 80.5447 175.518 80.1959C176.116 79.847 176.779 79.6726 177.507 79.6726ZM180.557 83.8886C180.557 83.2707 180.432 82.7325 180.183 82.274C179.934 81.8155 179.595 81.4667 179.166 81.2275C178.748 80.9783 178.284 80.8537 177.776 80.8537C177.267 80.8537 176.804 80.9733 176.385 81.2125C175.967 81.4517 175.633 81.8006 175.384 82.259C175.135 82.7175 175.01 83.2557 175.01 83.8737C175.01 84.5016 175.135 85.0498 175.384 85.5182C175.633 85.9767 175.967 86.3305 176.385 86.5797C176.804 86.8189 177.267 86.9385 177.776 86.9385C178.284 86.9385 178.748 86.8189 179.166 86.5797C179.595 86.3305 179.934 85.9767 180.183 85.5182C180.432 85.0498 180.557 84.5066 180.557 83.8886ZM191.497 79.8072V88H190.136V86.789C189.877 87.2076 189.514 87.5365 189.045 87.7757C188.587 88.005 188.078 88.1196 187.52 88.1196C186.882 88.1196 186.309 87.99 185.801 87.7309C185.293 87.4618 184.889 87.0631 184.59 86.5349C184.301 86.0066 184.156 85.3637 184.156 84.6063V79.8072H185.502V84.4269C185.502 85.2342 185.706 85.8571 186.115 86.2957C186.523 86.7242 187.082 86.9385 187.789 86.9385C188.517 86.9385 189.09 86.7143 189.509 86.2658C189.927 85.8172 190.136 85.1644 190.136 84.3073V79.8072H191.497ZM195.155 81.1378C195.394 80.6693 195.733 80.3055 196.171 80.0464C196.62 79.7872 197.163 79.6577 197.801 79.6577V81.063H197.442C195.917 81.063 195.155 81.8903 195.155 83.5448V88H193.794V79.8072H195.155V81.1378ZM200.074 78.4766C199.815 78.4766 199.596 78.3869 199.416 78.2075C199.237 78.0281 199.147 77.8088 199.147 77.5497C199.147 77.2905 199.237 77.0713 199.416 76.8919C199.596 76.7124 199.815 76.6227 200.074 76.6227C200.323 76.6227 200.532 76.7124 200.702 76.8919C200.881 77.0713 200.971 77.2905 200.971 77.5497C200.971 77.8088 200.881 78.0281 200.702 78.2075C200.532 78.3869 200.323 78.4766 200.074 78.4766ZM200.732 79.8072V88H199.371V79.8072H200.732Z" fill="black"/>
<path d="M419.283 132.084L364.125 149.483L356.652 142.466L367.543 100.953L300.785 98.6208L353.581 146.819L251.119 123.007M251.119 123.007L296.866 156.083L259.261 89.703L293.662 96.6227L310.735 44.3974L370.731 86.6221L393.85 28.4721L314.357 39.4113L318.553 -34.8155L264.582 5.12989L246.049 73.0074L251.119 123.007ZM308.732 39.2227L257.039 72.7114M377.086 182.955L300.077 164.374L359.319 149.353L377.086 182.955Z" stroke="#8D98AA"/>
<circle cx="296.247" cy="159.11" r="22.6041" transform="rotate(-111.168 296.247 159.11)" fill="#3D8AFF" stroke="#8D98AA"/>
<circle cx="367.139" cy="92.1948" r="26.6886" transform="rotate(-111.168 367.139 92.1948)" fill="#3D8AFF" stroke="#8D98AA"/>
<circle cx="298.004" cy="99.6093" r="8.63851" transform="rotate(-111.168 298.004 99.6093)" fill="#36BD57" stroke="#8D98AA"/>
<circle cx="251.643" cy="127.383" r="8.63851" transform="rotate(-111.168 251.643 127.383)" fill="#36BD57" stroke="#8D98AA"/>
<circle cx="378.163" cy="184.706" r="8.63851" transform="rotate(-111.168 378.163 184.706)" fill="#36BD57" stroke="#8D98AA"/>
<circle cx="312.646" cy="40.7597" r="8.63851" transform="rotate(-111.168 312.646 40.7597)" fill="#FF4F3E" stroke="#8D98AA"/>
<circle cx="358.173" cy="150.106" r="8.63851" transform="rotate(-111.168 358.173 150.106)" fill="#FF4F3E" stroke="#8D98AA"/>
<circle cx="259.785" cy="10.1072" r="19.3035" transform="rotate(-111.168 259.785 10.1072)" fill="#FFBB00" stroke="#8D98AA"/>
<circle cx="250.574" cy="79.551" r="19.3035" transform="rotate(-111.168 250.574 79.551)" fill="#FFBB00" stroke="#8D98AA"/>
</g>
<defs>
<clipPath id="clip0_326_1764">
<rect width="383" height="196" fill="white"/>
</clipPath>
</defs>
</svg>
