<svg width="375" height="54" viewBox="0 0 375 54" fill="none" xmlns="http://www.w3.org/2000/svg">
<path d="M-4 53.9246V53.0077L13.0153 8.78027H26.6069L32.3132 16.547M73.6065 16.2234L78.4829 8.78027H91.9707L109.609 52.4684V54.1943" stroke="black"/>
<path d="M95.3432 53.9789V35.0474H86.1611V53.9789" stroke="black"/>
<path d="M83.3584 33.3755L83.3584 53.8711" stroke="black"/>
<path d="M88.5464 19.7296V32.9978H82.7882L82.2176 32.4045V31.8113L82.5288 31.1101L82.6326 30.8404V30.5168L82.5807 30.1932L82.3213 29.7077L81.9582 29.5999L81.6988 29.5459H81.4913L81.595 29.2223L81.6988 28.683V28.3054L81.4913 27.8739L81.0244 27.4964L80.4019 27.1188H79.8313H79.2087V26.6334L79.0531 26.3098L78.7937 25.9862L78.275 25.6086L77.6006 25.5007H76.5112L76.4593 25.1232L76.3037 24.6378L75.7849 24.2602L69.4561 21.6174L63.0753 24.6378L62.8678 24.8535V25.6086H61.5709H60.9484L60.5334 25.8783L60.1702 26.2558L59.9109 26.6873V27.0649V27.2267H59.2365L58.9771 27.3346L58.614 27.4964L58.199 27.8739L57.8877 28.1975L57.4727 28.7908L57.4208 29.2763V29.5459V29.7077H56.9539L56.6427 29.8696L56.4352 30.1932L56.3314 30.7865L56.4352 31.218L56.6427 31.8113V32.1888L56.4352 32.7821L56.1758 33.0518H49.9507L49.795 32.7821V32.4045V31.9731L49.9507 31.6494L50.1582 31.218L50.2619 30.8943V30.5168L50.1582 29.8696L49.795 29.7077L49.2244 29.5459H49.0169L49.1206 29.1684V28.8448L49.0169 28.4133L48.8094 28.0357L48.6019 27.7121L48.1869 27.4424L47.7719 27.2806L47.2531 27.2267L46.7344 27.1188L46.5787 26.7952L46.3193 26.2558L45.8525 25.7165L45.3337 25.4468H43.8812L43.7774 25.0693L43.518 24.6378L43.0512 24.2602L42.273 23.7209L37.1892 21.3477L30.7047 24.1523L30.4972 24.3681L30.3415 24.5838L30.1859 25.1232L30.134 25.3929H29.5634H28.5777L28.2146 25.5547L27.9034 25.8783L27.5921 26.2019L27.4365 26.5795V26.9031V27.1188H26.814L26.2952 27.2267L25.8802 27.3885L25.4133 27.7121L25.2058 28.0897L24.9983 28.4672L24.8945 28.8448V29.2223V29.492H24.4795L24.0645 29.5999L23.857 29.8156L23.7014 30.0314V30.4089L23.9608 30.8943L24.0645 31.4337V32.5664H18.6694L18.4619 19.3521" stroke="black"/>
<path d="M12.6006 19.2979L92.749 19.6215" stroke="black"/>
<path d="M36.9824 19.3525V15.1455H69.7162V19.4604" stroke="black"/>
<path d="M51.1963 33.0518V53.9789" stroke="black"/>
<path d="M55.0352 33.0518V53.9789" stroke="black"/>
<path d="M22.9238 32.728V53.9249" stroke="black"/>
<path d="M18.8252 53.9252V35.1016H8.96875V53.9252" stroke="black"/>
<path d="M8.96875 40.3329H10.0063L10.11 39.7936L10.3175 39.3621L10.6288 39.0385L11.1475 38.4991L11.5107 38.1216L12.0813 37.798L12.5482 37.5283L13.1707 37.2586L13.6376 37.0968L14.2082 36.7192L14.8307 37.0968L15.4014 37.2586L15.8683 37.5283L16.3351 37.798L16.9058 38.1216L17.3208 38.4991L17.6839 39.0385L18.0989 39.3621L18.4102 39.7936L18.5658 40.3329H18.8252" stroke="black"/>
<path d="M95.2913 40.1716H94.5132L94.2019 39.5783L93.8388 39.0929L93.4238 38.5535L92.8531 38.0142L92.3344 37.7445L91.8675 37.5287L91.4006 37.259L90.9337 37.0433L90.3112 36.6118L89.7925 36.9354L89.2737 37.259L88.7031 37.5287L88.2362 37.7445L87.7693 38.0142L87.3543 38.3378L87.043 38.7693L86.6799 39.2547L86.5243 39.3625H86.1611" stroke="black"/>
<path d="M70.244 16.1357L69.751 16.524V18.2228H70.7918V16.524L70.244 16.1357Z" stroke="black"/>
<path d="M71.9426 15.9814L71.2383 16.42V18.2231H72.5765V16.42L71.9426 15.9814Z" stroke="black"/>
<path d="M73.4504 16.062L72.9316 16.5474V18.2194H73.9173V16.5474L73.4504 16.062Z" stroke="black"/>
<path d="M74.436 16.7092V18.2194H75.6811V16.7092L75.1623 16.062L74.436 16.7092Z" stroke="black"/>
<path d="M76.1494 16.7095V18.1658H77.3944V16.7095L76.7719 16.1162L76.1494 16.7095Z" stroke="black"/>
<path d="M77.8604 16.7088V18.1651H79.0016V16.7088L78.4829 16.1694L77.8604 16.7088Z" stroke="black"/>
<path d="M79.4678 16.6556V18.1658H80.609V16.6556L80.0903 16.1162L79.4678 16.6556Z" stroke="black"/>
<path d="M81.0762 16.6549V18.1651H82.2693V16.6549L81.6468 16.1694L81.0762 16.6549Z" stroke="black"/>
<path d="M83.8786 18.2729H82.7373V16.6549L83.3079 16.1694L83.8786 16.7627V18.2729Z" stroke="black"/>
<path d="M84.8635 16.1694L84.3447 16.6549V18.2729H85.4341V16.6549L84.8635 16.1694Z" stroke="black"/>
<path d="M14.2606 16.4932V18.2731H13.0156V16.2775L13.5863 15.8999L14.2606 16.4932Z" stroke="black"/>
<path d="M14.7266 16.4665V18.3272H15.9745V16.4665L15.3505 15.8462L14.7266 16.4665Z" stroke="black"/>
<path d="M16.4945 16.4665V18.3272H17.7425V16.4665L17.1185 15.8462L16.4945 16.4665Z" stroke="black"/>
<path d="M18.3665 16.4665V18.3272H19.6144V16.4665L19.0425 15.8462L18.3665 16.4665Z" stroke="black"/>
<path d="M20.0824 16.4665V18.3272H21.3304V16.4665L20.7584 15.8462L20.0824 16.4665Z" stroke="black"/>
<path d="M21.7984 16.4665V18.3272H23.0463V16.4665L22.4744 15.8462L21.7984 16.4665Z" stroke="black"/>
<path d="M23.5143 16.6356V18.3812H24.8143V16.6356L24.1903 15.8462L23.5143 16.6356Z" stroke="black"/>
<path d="M25.2823 16.6356V18.4891H26.4783V16.6356L25.9063 15.8462L25.2823 16.6356Z" stroke="black"/>
<path d="M26.9982 16.6356V18.4891H28.2462V16.4665L27.6222 15.8462L26.9982 16.6356Z" stroke="black"/>
<path d="M28.7142 16.4665V18.4891H30.0142V16.4665L29.3902 15.8462L28.7142 16.4665Z" stroke="black"/>
<path d="M30.5342 16.6356V18.4891H31.6781V16.6356L31.1581 16.0717L30.5342 16.6356Z" stroke="black"/>
<path d="M32.2501 16.6356V18.4891H33.5501V16.6356L32.8741 16.0717L32.2501 16.6356Z" stroke="black"/>
<path d="M34.0181 16.6356V18.4891H35.266V16.6356L34.5901 16.0717L34.0181 16.6356Z" stroke="black"/>
<path d="M35.578 16.6356V18.4891H36.9814V16.6356L36.098 16.0717L35.578 16.6356Z" stroke="black"/>
<path d="M86.5236 16.2236L86.0049 16.763V18.3271H86.9905V16.763L86.5236 16.2236Z" stroke="black"/>
<path d="M88.1322 16.2236L87.5615 16.763V18.3811H88.7547V16.763L88.1322 16.2236Z" stroke="black"/>
<path d="M89.844 16.062L89.3252 16.5474V18.5431H90.3108V16.5474L89.844 16.062Z" stroke="black"/>
<path d="M86.2828 12.3404C86.2828 13.5126 85.3737 14.4293 84.2928 14.4293C83.2119 14.4293 82.3027 13.5126 82.3027 12.3404C82.3027 11.1682 83.2119 10.2515 84.2928 10.2515C85.3737 10.2515 86.2828 11.1682 86.2828 12.3404Z" stroke="black"/>
<path d="M22.89 12.3404C22.89 13.5228 21.9944 14.4293 20.9518 14.4293C19.9093 14.4293 19.0137 13.5228 19.0137 12.3404C19.0137 11.158 19.9093 10.2515 20.9518 10.2515C21.9944 10.2515 22.89 11.158 22.89 12.3404Z" stroke="black"/>
<path d="M92.3339 18.5973V16.1162L91.0889 16.4938V18.5973H92.3339Z" stroke="black"/>
<path d="M217.498 23.9727V20.1741H223.239V1H223.935V2.62799H224.457V1H225.153V2.62799H225.849V1H226.545V2.62799H227.089V1H227.833V10.0444H239.767V1H240.637V2.62799H241.246V1H241.942V2.62799H242.551V1H243.421V2.62799H243.943V1H244.639V20.1741H257.513V29.0376" stroke="black"/>
<path d="M255.426 29.0376H287.09V26.5052H289.7V13.3004V12.9386H289.218V12.396H289.874V12.2151L289.7 12.0342V11.8116V11.3106L289.967 10.7401L290.248 10.4479L290.396 10.2253L290.998 9.96094L291.373 10.2253L291.747 10.5453L291.961 10.9349L292.122 11.422V12.0064L291.841 12.2151V12.396H292.497V12.9386H291.961V13.3004V13.8431L372.514 14.5666V13.3004H372.032V12.5768H372.34V12.396V12.0342V11.4915L372.621 10.8555L372.919 10.4062L373.239 10.1405H373.737L374.08 10.4062L374.602 11.1297L374.776 11.6724V12.0342V12.5174H375V13.3004H374.428V14.2048V34.2768" stroke="black"/>
<path d="M259.774 34.6452V33.7407H261.862V35.0069H269.691V33.7407H271.083H271.431V35.0069H279.086V34.1025H280.478V35.0069H287.959V34.1025H289.699V35.0069H299.964V34.1025H301.703V35.0069H312.142V34.1025H313.534V35.1878H324.495V34.1025H326.061V35.1878H336.499V34.1025H338.065V35.1878H348.504V34.2834H350.07V35.1878H361.03V34.2834H362.77V35.1878H373.557V34.4643H374.775V35.1878H375.471V35.7305" stroke="black"/>
<path d="M184.615 33.1982V28.3142H208.972V26.1436H214.192L214.888 25.9627L215.932 25.42L216.801 24.6965L219.759 21.8022L224.283 25.0582L225.674 25.9627L226.94 26.4312L228.632 26.6862H231.438L233.677 26.1436L235.939 24.6965L238.897 22.5258L241.333 24.6965L242.898 25.9627L244.986 26.1436L249.684 26.6862M249.684 26.6862H252.467V30.304H249.684V26.6862ZM249.336 30.4849V38.263" stroke="black"/>
<path d="M247.944 30.3037C247.944 30.7378 247.944 35.7906 247.944 38.2628" stroke="black"/>
<path d="M239.245 24.6958V38.0815" stroke="black"/>
<path d="M237.157 38.0818V24.877" stroke="black"/>
<path d="M221.325 24.6958V38.0815" stroke="black"/>
<path d="M219.76 24.6958V37.9006" stroke="black"/>
<path d="M211.061 29.7607V38.2625" stroke="black"/>
<path d="M109.631 52.0103V16.1946H177.831V15.1092V14.7475H177.483H177.309V14.0239H177.831V13.3004H177.483V12.9386L177.657 12.5768L178.179 12.0341L178.527 11.6724L179.223 12.0341L179.571 12.3959L179.745 12.5768L179.919 12.9386V13.3004H179.658V14.0239H180.173V14.7475H179.745V16.0137H182.528H182.876V16.7372H182.528V25.6007H181.136V33.0171" stroke="black"/>
<path d="M125.984 24.1538L182.702 24.5156" stroke="black"/>
<path d="M126.506 30.1227H127.202M127.202 30.1227H131.203V25.2388H127.202V30.1227ZM171.74 25.6005V30.4845H177.308V25.6005H171.74ZM169.653 25.6005V30.4845H162.172V25.6005H169.653ZM160.084 25.6005V30.1227H153.125V25.6005H160.084ZM150.863 25.2388V30.1227H143.556V25.2388H150.863ZM141.642 25.2388V30.1227H133.465V25.2388H141.642Z" stroke="black"/>
<path d="M209.669 29.7607V38.0816" stroke="black"/>
<path d="M208.104 38.6245L252.642 39.1672" stroke="black"/>
<path d="M221.325 52.3722V40.4336H236.983V52.3722" stroke="black"/>
<path d="M208.276 38.8057V52.0105" stroke="black"/>
<path d="M250.555 39.1675V51.8296" stroke="black"/>
<path d="M256.643 52.7341V46.2221L259.774 34.6453H251.945V30.4849" stroke="black"/>
<path d="M201.318 51.4675V46.0408L205.668 35.0067V33.5596" stroke="black"/>
<path d="M206.886 34.2837H209.669" stroke="black"/>
<path d="M204.972 34.1021H197.142V33.0168H195.577V34.1021H188.096V33.0168H186.704V34.1021H178.701V33.0168H177.309V34.1021H169.654V33.0168H168.088V34.1021H160.607V33.0168H158.867V34.1021H151.212V33.0168H149.82V34.1021H142.687V33.0168H140.773V34.1021H133.64V33.0168H131.9V33.5594H124.071V32.4741H122.505V33.5594H109.631" stroke="black"/>
<path d="M375.472 35.188V54.1812" stroke="black"/>
<path d="M123.202 52.7337V42.2422H127.552V52.7337M130.335 52.7337V44.232L130.857 43.6893L131.901 42.7849L132.423 42.4231L133.119 42.2422H134.163H135.381L135.903 42.604L136.599 42.9657L137.294 43.6893L137.816 44.232V52.7337" stroke="black"/>
<path d="M140.251 52.5528V44.7746L140.947 43.5084L141.991 42.7849L143.035 42.2422H144.253L145.818 42.7849L147.036 43.5084L147.906 44.7746V52.5528" stroke="black"/>
<path d="M150.516 52.3719V44.7746V44.4128L150.864 43.8702L151.56 42.9657L152.603 42.4231L153.299 42.2422L154.865 42.4231L155.735 42.7849L156.431 43.5084L156.953 44.4128C157.069 44.7143 157.301 45.3535 157.301 45.4982C157.301 45.6429 157.301 50.141 157.301 52.3719" stroke="black"/>
<path d="M159.562 52.1912V44.2322L160.258 43.5086L161.128 42.7851L162.172 42.2424L163.042 42.0615H164.26L165.304 42.4233L166.174 42.966L167.044 44.2322V44.9557C167.044 45.1969 167.044 45.7155 167.044 45.8602C167.044 46.0049 167.044 50.1412 167.044 52.1912" stroke="black"/>
<path d="M169.653 52.1909V43.1465H173.307V52.1909" stroke="black"/>
<path d="M179.57 51.6486V46.041L179.918 45.4984L180.614 44.7748L181.136 44.413L181.832 44.0513H182.354H183.05H183.746L184.268 44.2322L184.79 44.5939L185.312 45.1366L186.008 46.041V46.5837V51.6486" stroke="black"/>
<path d="M188.27 51.6488V46.403L188.617 45.8604L189.139 45.1368L189.661 44.5941L190.357 44.0515L191.053 43.9309L192.097 43.75L192.967 43.8706L193.663 44.1118L194.794 45.1067L195.49 46.1317L195.577 46.403V51.6488" stroke="black"/>
<path d="M197.49 51.6486V46.4028L197.838 45.8601L198.534 45.1366L199.23 44.5939L199.926 44.0513H200.448H200.97H201.666H201.84L202.014 44.2322" stroke="black"/>
<path d="M261.688 51.6484V47.1262L262.21 46.2217L263.08 45.1364L264.646 44.5938L266.212 44.7746L267.778 45.4982L268.648 47.1262V52.5528" stroke="black"/>
<path d="M270.91 52.5531V46.9456L271.432 45.8602L272.302 45.1367L273.868 44.7749H275.956L277.173 45.4985L278.043 46.5838V47.6691C278.043 48.3324 278.043 49.7312 278.043 50.0206C278.043 50.3101 278.043 51.8295 278.043 52.5531" stroke="black"/>
<path d="M279.957 52.5528V47.1262L280.479 46.0409L281.523 45.1364L283.437 44.5938H285.176L286.742 45.1364L287.612 46.0409L288.134 47.1262V50.563V52.5528" stroke="black"/>
<path d="M294.05 52.5526V43.1465H298.747V52.5526" stroke="black"/>
<path d="M301.182 52.5534V46.765L302.226 45.3178L302.921 44.2325L304.487 43.509L306.227 42.9663L307.967 43.509L309.707 44.7752L310.924 46.2223L311.272 46.765V52.0107" stroke="black"/>
<path d="M313.535 52.3725V46.5841L314.753 44.9561L315.797 43.6899L317.537 42.9663H319.45L322.234 44.2325L323.452 45.8605L323.8 46.5841V52.3725" stroke="black"/>
<path d="M325.887 52.1916V46.9458L326.931 45.137L328.67 43.509L330.932 42.9663H332.846L334.238 43.509L335.63 45.137L336.673 46.9458V52.1916" stroke="black"/>
<path d="M338.588 52.3718V46.7643L339.284 45.4981L340.85 44.2319L342.067 43.5083H343.981L346.069 44.2319L347.287 44.9554L348.331 46.7643V48.9349V52.3718M351.114 53.0954V43.5083H356.682V53.0954" stroke="black"/>
<path d="M290.396 25.0581H357.378" stroke="black"/>
<path d="M355.811 31.57V26.686H350.939V31.57H355.811Z" stroke="black"/>
<path d="M349.027 31.5697V26.5049H338.588V31.5697H349.027Z" stroke="black"/>
<path d="M336.499 31.3891V26.686H326.234V31.3891H336.499Z" stroke="black"/>
<path d="M324.321 31.5697V26.5049H313.36V31.5697H324.321Z" stroke="black"/>
<path d="M311.448 31.0271V26.5049H300.835V31.0271H311.448Z" stroke="black"/>
<path d="M299.094 31.2079V26.1431H292.135V31.2079H299.094Z" stroke="black"/>
<path d="M290.396 26.5049V35.0066" stroke="black"/>
<path d="M238.049 18.0936C238.049 20.1837 236.424 21.8445 234.461 21.8445C232.497 21.8445 230.872 20.1837 230.872 18.0936C230.872 16.0036 232.497 14.3428 234.461 14.3428C236.424 14.3428 238.049 16.0036 238.049 18.0936Z" stroke="black"/>
</svg>
