<svg width="162" height="21" viewBox="0 0 162 21" fill="none" xmlns="http://www.w3.org/2000/svg">
<path d="M9.53789 10.0519L16.0479 6.29185C17.5779 5.41185 18.1079 3.45185 17.2179 1.91185C16.3379 0.381851 14.3779 -0.148149 12.8379 0.741851L1.58789 7.24185L9.53789 10.0519Z" fill="#E74436"/>
<path d="M14.4478 19.7121C15.5578 19.7121 16.6278 19.1421 17.2278 18.1121C18.1078 16.5821 17.5878 14.6221 16.0578 13.7321L4.80784 7.23209C3.27784 6.34209 1.31784 6.87209 0.427836 8.40209C-0.452164 9.93209 0.0678383 11.8921 1.59784 12.7821L12.8478 19.2821C13.3478 19.5721 13.8978 19.7121 14.4478 19.7121Z" fill="#4C78BC"/>
<path d="M25.6378 19.7121C26.1778 19.7121 26.7278 19.5721 27.2378 19.2821L38.4878 12.7821L30.6478 9.91211L24.0378 13.7321C22.5078 14.6121 21.9778 16.5721 22.8678 18.1121C23.4578 19.1421 24.5278 19.7121 25.6378 19.7121Z" fill="#F6B819"/>
<path d="M36.8883 13.212C37.9983 13.212 39.0683 12.642 39.6683 11.612C40.5483 10.082 40.0283 8.12204 38.4983 7.23204L27.2483 0.732036C25.7183 -0.147964 23.7583 0.372036 22.8683 1.90204C21.9883 3.43204 22.5083 5.39204 24.0383 6.28204L35.2883 12.782C35.7883 13.082 36.3383 13.212 36.8883 13.212Z" fill="#0B9D58"/>
<path d="M56.8673 8.59955C56.5782 7.99157 56.1596 7.52312 55.6114 7.19421C55.0632 6.85534 54.4254 6.6859 53.6978 6.6859C52.9702 6.6859 52.3124 6.85534 51.7243 7.19421C51.1462 7.52312 50.6878 8.00154 50.3489 8.62945C50.02 9.2474 49.8555 9.96502 49.8555 10.7823C49.8555 11.5996 50.02 12.3172 50.3489 12.9352C50.6878 13.5531 51.1462 14.0315 51.7243 14.3704C52.3124 14.6993 52.9702 14.8638 53.6978 14.8638C54.7144 14.8638 55.5516 14.5598 56.2094 13.9518C56.8673 13.3438 57.251 12.5215 57.3606 11.485H53.2044V10.3786H58.8108V11.4252C58.7311 12.2823 58.462 13.0697 58.0035 13.7873C57.545 14.495 56.942 15.0581 56.1945 15.4767C55.447 15.8854 54.6147 16.0897 53.6978 16.0897C52.731 16.0897 51.8489 15.8654 51.0516 15.4169C50.2542 14.9585 49.6213 14.3256 49.1529 13.5182C48.6944 12.7109 48.4651 11.7989 48.4651 10.7823C48.4651 9.76568 48.6944 8.85371 49.1529 8.04639C49.6213 7.2291 50.2542 6.5962 51.0516 6.14769C51.8489 5.68921 52.731 5.45997 53.6978 5.45997C54.8041 5.45997 55.7809 5.73406 56.6281 6.28224C57.4852 6.83042 58.1081 7.60286 58.4969 8.59955H56.8673ZM63.8539 5.57957C64.9901 5.57957 65.9719 5.79386 66.7991 6.22244C67.6363 6.64105 68.2742 7.24405 68.7128 8.03144C69.1613 8.81882 69.3855 9.74575 69.3855 10.8122C69.3855 11.8787 69.1613 12.8056 68.7128 13.593C68.2742 14.3704 67.6363 14.9684 66.7991 15.387C65.9719 15.7957 64.9901 16 63.8539 16H60.6096V5.57957H63.8539ZM63.8539 14.8787C65.1994 14.8787 66.226 14.5249 66.9337 13.8172C67.6413 13.0996 67.9951 12.0979 67.9951 10.8122C67.9951 9.51651 67.6363 8.50487 66.9187 7.77728C66.2111 7.04969 65.1895 6.6859 63.8539 6.6859H61.9701V14.8787H63.8539ZM79.0739 8.59955C78.7848 7.99157 78.3662 7.52312 77.818 7.19421C77.2698 6.85534 76.632 6.6859 75.9044 6.6859C75.1768 6.6859 74.519 6.85534 73.9309 7.19421C73.3528 7.52312 72.8944 8.00154 72.5555 8.62945C72.2266 9.2474 72.0621 9.96502 72.0621 10.7823C72.0621 11.5996 72.2266 12.3172 72.5555 12.9352C72.8944 13.5531 73.3528 14.0315 73.9309 14.3704C74.519 14.6993 75.1768 14.8638 75.9044 14.8638C76.921 14.8638 77.7582 14.5598 78.416 13.9518C79.0739 13.3438 79.4576 12.5215 79.5672 11.485H75.411V10.3786H81.0174V11.4252C80.9377 12.2823 80.6686 13.0697 80.2101 13.7873C79.7516 14.495 79.1486 15.0581 78.4011 15.4767C77.6536 15.8854 76.8213 16.0897 75.9044 16.0897C74.9376 16.0897 74.0555 15.8654 73.2582 15.4169C72.4608 14.9585 71.8279 14.3256 71.3595 13.5182C70.901 12.7109 70.6717 11.7989 70.6717 10.7823C70.6717 9.76568 70.901 8.85371 71.3595 8.04639C71.8279 7.2291 72.4608 6.5962 73.2582 6.14769C74.0555 5.68921 74.9376 5.45997 75.9044 5.45997C77.0107 5.45997 77.9875 5.73406 78.8347 6.28224C79.6918 6.83042 80.3147 7.60286 80.7035 8.59955H79.0739ZM97.372 5.65432V16H96.0115V8.28559L92.5729 16H91.6161L88.1625 8.27064V16H86.802V5.65432H88.2672L92.0945 14.206L95.9218 5.65432H97.372ZM99.1709 11.8737C99.1709 11.0365 99.3404 10.3039 99.6792 9.67598C100.018 9.0381 100.482 8.54473 101.07 8.19589C101.668 7.84705 102.33 7.67263 103.058 7.67263C103.776 7.67263 104.399 7.82711 104.927 8.13609C105.455 8.44506 105.849 8.83377 106.108 9.30222V7.80718H107.483V16H106.108V14.4751C105.839 14.9535 105.435 15.3521 104.897 15.6711C104.369 15.9801 103.751 16.1346 103.043 16.1346C102.315 16.1346 101.658 15.9551 101.07 15.5963C100.482 15.2375 100.018 14.7342 99.6792 14.0863C99.3404 13.4385 99.1709 12.7009 99.1709 11.8737ZM106.108 11.8886C106.108 11.2707 105.983 10.7325 105.734 10.274C105.485 9.81552 105.146 9.46667 104.718 9.22747C104.299 8.9783 103.835 8.85371 103.327 8.85371C102.819 8.85371 102.355 8.97331 101.937 9.21252C101.518 9.45172 101.184 9.80057 100.935 10.259C100.686 10.7175 100.561 11.2557 100.561 11.8737C100.561 12.5016 100.686 13.0498 100.935 13.5182C101.184 13.9767 101.518 14.3305 101.937 14.5797C102.355 14.8189 102.819 14.9385 103.327 14.9385C103.835 14.9385 104.299 14.8189 104.718 14.5797C105.146 14.3305 105.485 13.9767 105.734 13.5182C105.983 13.0498 106.108 12.5066 106.108 11.8886ZM110.485 6.47659C110.226 6.47659 110.007 6.38689 109.827 6.20749C109.648 6.02808 109.558 5.80881 109.558 5.54967C109.558 5.29053 109.648 5.07126 109.827 4.89185C110.007 4.71245 110.226 4.62274 110.485 4.62274C110.734 4.62274 110.944 4.71245 111.113 4.89185C111.292 5.07126 111.382 5.29053 111.382 5.54967C111.382 5.80881 111.292 6.02808 111.113 6.20749C110.944 6.38689 110.734 6.47659 110.485 6.47659ZM111.143 7.80718V16H109.782V7.80718H111.143ZM112.953 11.8737C112.953 11.0365 113.123 10.3039 113.462 9.67598C113.801 9.0381 114.264 8.54473 114.852 8.19589C115.45 7.84705 116.118 7.67263 116.855 7.67263C117.493 7.67263 118.086 7.82213 118.634 8.12114C119.183 8.41018 119.601 8.79391 119.89 9.27232V4.9367H121.266V16H119.89V14.4601C119.621 14.9485 119.223 15.3521 118.694 15.6711C118.166 15.9801 117.548 16.1346 116.84 16.1346C116.113 16.1346 115.45 15.9551 114.852 15.5963C114.264 15.2375 113.801 14.7342 113.462 14.0863C113.123 13.4385 112.953 12.7009 112.953 11.8737ZM119.89 11.8886C119.89 11.2707 119.766 10.7325 119.517 10.274C119.267 9.81552 118.929 9.46667 118.5 9.22747C118.081 8.9783 117.618 8.85371 117.11 8.85371C116.601 8.85371 116.138 8.97331 115.719 9.21252C115.301 9.45172 114.967 9.80057 114.717 10.259C114.468 10.7175 114.344 11.2557 114.344 11.8737C114.344 12.5016 114.468 13.0498 114.717 13.5182C114.967 13.9767 115.301 14.3305 115.719 14.5797C116.138 14.8189 116.601 14.9385 117.11 14.9385C117.618 14.9385 118.081 14.8189 118.5 14.5797C118.929 14.3305 119.267 13.9767 119.517 13.5182C119.766 13.0498 119.89 12.5066 119.89 11.8886ZM130.831 7.80718V16H129.47V14.789C129.211 15.2076 128.847 15.5365 128.379 15.7757C127.92 16.005 127.412 16.1196 126.854 16.1196C126.216 16.1196 125.643 15.99 125.135 15.7309C124.626 15.4618 124.223 15.0631 123.924 14.5349C123.635 14.0066 123.49 13.3637 123.49 12.6063V7.80718H124.836V12.4269C124.836 13.2342 125.04 13.8571 125.449 14.2957C125.857 14.7242 126.415 14.9385 127.123 14.9385C127.851 14.9385 128.424 14.7143 128.842 14.2658C129.261 13.8172 129.47 13.1644 129.47 12.3073V7.80718H130.831ZM136.507 7.67263C137.214 7.67263 137.832 7.82711 138.36 8.13609C138.899 8.44506 139.297 8.83377 139.557 9.30222V7.80718H140.932V16.1794C140.932 16.9269 140.772 17.5897 140.454 18.1678C140.135 18.7559 139.676 19.2143 139.078 19.5432C138.49 19.8722 137.802 20.0366 137.015 20.0366C135.939 20.0366 135.042 19.7825 134.324 19.2741C133.606 18.7658 133.183 18.0731 133.053 17.196H134.399C134.548 17.6944 134.857 18.0931 135.326 18.3921C135.794 18.701 136.357 18.8555 137.015 18.8555C137.762 18.8555 138.37 18.6213 138.839 18.1529C139.317 17.6844 139.557 17.0266 139.557 16.1794V14.4601C139.287 14.9385 138.889 15.3372 138.36 15.6561C137.832 15.9751 137.214 16.1346 136.507 16.1346C135.779 16.1346 135.116 15.9551 134.518 15.5963C133.93 15.2375 133.467 14.7342 133.128 14.0863C132.789 13.4385 132.62 12.7009 132.62 11.8737C132.62 11.0365 132.789 10.3039 133.128 9.67598C133.467 9.0381 133.93 8.54473 134.518 8.19589C135.116 7.84705 135.779 7.67263 136.507 7.67263ZM139.557 11.8886C139.557 11.2707 139.432 10.7325 139.183 10.274C138.934 9.81552 138.595 9.46667 138.166 9.22747C137.748 8.9783 137.284 8.85371 136.776 8.85371C136.267 8.85371 135.804 8.97331 135.385 9.21252C134.967 9.45172 134.633 9.80057 134.384 10.259C134.135 10.7175 134.01 11.2557 134.01 11.8737C134.01 12.5016 134.135 13.0498 134.384 13.5182C134.633 13.9767 134.967 14.3305 135.385 14.5797C135.804 14.8189 136.267 14.9385 136.776 14.9385C137.284 14.9385 137.748 14.8189 138.166 14.5797C138.595 14.3305 138.934 13.9767 139.183 13.5182C139.432 13.0498 139.557 12.5066 139.557 11.8886ZM150.497 7.80718V16H149.136V14.789C148.877 15.2076 148.514 15.5365 148.045 15.7757C147.587 16.005 147.078 16.1196 146.52 16.1196C145.882 16.1196 145.309 15.99 144.801 15.7309C144.293 15.4618 143.889 15.0631 143.59 14.5349C143.301 14.0066 143.156 13.3637 143.156 12.6063V7.80718H144.502V12.4269C144.502 13.2342 144.706 13.8571 145.115 14.2957C145.523 14.7242 146.082 14.9385 146.789 14.9385C147.517 14.9385 148.09 14.7143 148.509 14.2658C148.927 13.8172 149.136 13.1644 149.136 12.3073V7.80718H150.497ZM154.155 9.13777C154.394 8.66932 154.733 8.30553 155.171 8.04639C155.62 7.78725 156.163 7.65768 156.801 7.65768V9.06301H156.442C154.917 9.06301 154.155 9.89027 154.155 11.5448V16H152.794V7.80718H154.155V9.13777ZM159.074 6.47659C158.815 6.47659 158.596 6.38689 158.416 6.20749C158.237 6.02808 158.147 5.80881 158.147 5.54967C158.147 5.29053 158.237 5.07126 158.416 4.89185C158.596 4.71245 158.815 4.62274 159.074 4.62274C159.323 4.62274 159.532 4.71245 159.702 4.89185C159.881 5.07126 159.971 5.29053 159.971 5.54967C159.971 5.80881 159.881 6.02808 159.702 6.20749C159.532 6.38689 159.323 6.47659 159.074 6.47659ZM159.732 7.80718V16H158.371V7.80718H159.732Z" fill="black"/>
</svg>
